<svg xmlns="http://www.w3.org/2000/svg" width="318" height="338.5" viewBox="0 0 318 338.5"><path d="M307 141.7A140 140 0 0 0 272.4 61a161.3 161.3 0 0 0-47.8-36.6c-8-4.1-18-7.4-29-9.7-11-2.3-23.3-3.6-36-3.6-17.2 0-35.3 2.4-52 8.6a146 146 0 0 0-62 46 158.5 158.5 0 0 0-34.4 101.1 159 159 0 0 0 22.8 83 179.1 179.1 0 0 0 40 45.5 142 142 0 0 0 42.4 22.8 185.1 185.1 0 0 0 77.3 10.9v-.1a7.6 7.6 0 0 0 6.5-7.5V317a7.6 7.6 0 0 0-9.2-7.4c-.4 0-4 .4-10.4.4-8 0-32-.6-58.4-10.7A135.2 135.2 0 0 1 86.6 280a159.7 159.7 0 0 1-35.7-40.6A138 138 0 0 1 31.3 157c2-32.6 14-59 29.9-79 15.9-20 36-33.5 53.2-39.8a133 133 0 0 1 45.3-7.5c11.3 0 22.3 1.2 32 3.3 9.7 2 18.1 4.9 24 8a138.7 138.7 0 0 1 42 32 120.1 120.1 0 0 1 30.1 79.6c0 28.4-11.5 56.3-31 77a106.2 106.2 0 0 1-78 34.2H177a110 110 0 0 1-64.5-20.5 91.3 91.3 0 0 1-25-29.2c-7-12.5-12-28-14.5-47.2v-.4c0-.4-.4-3.3-.4-7.9a93.7 93.7 0 0 1 40.6-77.4c11-8 30.6-13.6 50.4-13.5 16.9 0 33.9 3.9 46.5 11.9A85.2 85.2 0 0 1 243 118a90.6 90.6 0 0 1 7.8 41.2 75.3 75.3 0 0 1-4 21.2c-.7 1.8-1.6 4.8-3.1 6.3s-3.5 1.7-3.8 1.2a3 3 0 0 1-.3-1.7l.1-2.4v-19.6c0-12.6-.1-20.3-.8-25.8-.4-2.7-1-5-1.8-6.9a19.6 19.6 0 0 0-13.3-11.3c-4.5-1.3-10.4-2-19.1-2.3l-6.5-.2h-.4l-5.3.2c-8.4.3-14.3.8-18.8 2-3.2.7-5.8 1.8-8 3.2-2-1.4-4.5-2.5-7.6-3.2a90 90 0 0 0-18-2l-6.4-.2h-.4l-5.3.2c-9.1.3-15.3 1-20 2.2a20 20 0 0 0-10.5 6.5 18 18 0 0 0-3 5c-2.3 5.9-2.5 13.7-2.6 32.6V200c0 4 3.3 7.3 7.3 7.3h4.3c4 0 7.3-3.2 7.3-7.3v-35.8c0-10.8 0-17 .3-20.8.1-1.9.3-3 .5-3.8.2-.7.4-.9.7-1.2a4 4 0 0 1 1.3-1c2.4-1.1 8.4-2 20.4-2.2 7.6.2 12.7.5 16 1.1 1.5.3 2.7.7 3.4 1 .7.4 1 .7 1.3 1l.2.2c.3.4.4.5.6 1.2.4 1 .6 3.1.8 7V200l.1.1c0 4 3.3 7.2 7.3 7.2h4.3c4 0 7.2-3.2 7.3-7.2v-35.9c0-10.8 0-17 .3-20.8 0-1.9.3-3 .5-3.8.2-.7.3-.9.6-1.2l1.4-1c2.3-1.1 8.4-2 20.3-2.2 7.7.2 12.8.5 16 1.1 1.6.3 2.7.7 3.4 1 .8.4 1.1.7 1.4 1l.1.2c.4.4.5.5.7 1.2.3 1 .6 3.1.7 7 .2 3.8.2 9.4.2 17.5v27.4s-1.6 20 16.5 20c3.1 0 6.6-.7 10.3-2.5a34.5 34.5 0 0 0 14.9-15.7 84 84 0 0 0 8-38.8 110 110 0 0 0-9.7-44.7 105 105 0 0 0-40.3-46 107.4 107.4 0 0 0-57-14.9c-23.3.1-45.8 6-61.8 17.1a113.5 113.5 0 0 0-48.3 104.1 150 150 0 0 0 16.7 54.3A110.4 110.4 0 0 0 119 271a136.4 136.4 0 0 0 59.8 13.2c37.3 0 69.7-16 92.4-40.3a133.4 133.4 0 0 0 35.7-102.3" fill="#fff" fill-rule="evenodd"/></svg>
